<?xml version="1.0" encoding="UTF-8" standalone="no"?>
<!-- Created with Inkscape (http://www.inkscape.org/) -->

<svg
   width="189.53531mm"
   height="24.105951mm"
   viewBox="0 0 189.53531 24.105951"
   version="1.1"
   id="svg1"
   xml:space="preserve"
   sodipodi:docname="title-outline.svg"
   xmlns:inkscape="http://www.inkscape.org/namespaces/inkscape"
   xmlns:sodipodi="http://sodipodi.sourceforge.net/DTD/sodipodi-0.dtd"
   xmlns="http://www.w3.org/2000/svg"
   xmlns:svg="http://www.w3.org/2000/svg"><sodipodi:namedview
     id="namedview1"
     pagecolor="#ffffff"
     bordercolor="#000000"
     borderopacity="0.25"
     inkscape:showpageshadow="2"
     inkscape:pageopacity="0.0"
     inkscape:pagecheckerboard="0"
     inkscape:deskcolor="#d1d1d1"
     inkscape:document-units="mm"
     inkscape:zoom="2.0334082"
     inkscape:cx="356.05247"
     inkscape:cy="104.01257"
     inkscape:window-width="1920"
     inkscape:window-height="1009"
     inkscape:window-x="-8"
     inkscape:window-y="1072"
     inkscape:window-maximized="1"
     inkscape:current-layer="layer1"><inkscape:page
       x="0"
       y="0"
       width="189.53531"
       height="24.105951"
       id="page2"
       margin="0"
       bleed="0" /></sodipodi:namedview><defs
     id="defs1" /><g
     inkscape:label="Layer 1"
     inkscape:groupmode="layer"
     id="layer1"
     transform="translate(-3.4962822,-2.4842007)"><path
       style="fill:#000000;stroke-width:0.264583"
       d="M 14.537175,3.7723048 13.433085,6.5325278 8.8327136,9.2927507 6.0724906,10.948885 3.6802972,10.672862 3.4962824,7.5446095 6.2565054,5.8884758 10.212825,5.1524164 h 3.22026 l 2.024164,0.7360594 0.920074,3.0362454 -2.024163,2.3921928 -1.472119,3.312268 -2.760223,3.22026 -3.2202604,2.760223 1.932156,-2.576208 2.3921934,-2.85223 3.772305,-5.7044612 6.348513,-2.6682157 4.508364,-1.3801114 2.300186,-0.6440522 2.392193,1.7481413 -0.552045,2.8522305 -1.656133,2.9442377 -5.704461,3.864312 -4.140335,1.288104 -3.680297,-1.472118"
       id="path4" /><path
       style="fill:#000000;stroke-width:0.264583"
       d="m 31.834571,18.217472 4.140335,-0.552045 1.932157,-1.472119 -0.552045,-2.208178 -3.496281,0.09201 -2.392193,1.380112 c 0,0 -1.104091,3.036245 -1.196097,3.404275 -0.09201,0.36803 1.288103,2.392193 1.288103,2.392193 l 2.392193,0.276023 2.760223,-0.276023 3.128254,-1.380111 2.208178,-1.380112 2.392193,-2.208178 1.472118,-2.116171 0.920075,-2.116171 0.73606,2.392193 1.656133,0.552045 -2.024163,2.392193 -0.920075,2.208179 0.36803,1.380111 h 2.944238 l 3.404275,-2.484201 3.036244,-1.748141 5.244426,-3.036245 1.932156,-4.0483274 -0.552045,-2.4842007 -1.84015,0.5520444 -2.760221,2.9442377 -2.024166,4.140335 -2.116169,2.944238 -2.484202,4.140334 -1.104088,2.208179 -0.552045,1.748141 1.380112,0.552045 3.036244,0.184014 1.748142,-3.58829 0.09201,-1.932156 -0.736057,-1.840148 2.668214,0.920074 2.668217,-0.276022 3.864311,-1.656134 4.784386,-1.104089 2.208178,-1.104089 0.460039,-1.656134 -2.760223,-1.288104 -2.852232,1.840148 -1.380112,1.380112 -0.644051,1.564126 -0.276021,2.024164 1.196096,1.380111 3.404275,0.460037 2.668214,-0.552044 2.944239,-1.748142 2.116172,-1.748141 2.116169,-1.748141 2.484202,-1.472119 2.024163,-0.36803 2.208178,0.644052 0.460039,1.472119 -1.472121,-0.276022 -1.196096,-1.380111 -4.140335,1.012081 -2.300184,2.944238 0.36803,1.748141 0.736057,1.012082 2.484202,0.184015 3.58829,-0.552045 2.668214,-0.828066 2.392194,-1.288104 1.932156,-1.840149 2.024163,-2.668216 1.748142,-4.3243491 -2.392193,3.5882901 -1.472118,2.484201 -1.288105,2.4842 v 2.392193 l 0.828066,1.012082 2.024166,0.09201 1.380112,-1.196097"
       id="path5" /><path
       style="fill:#000000;stroke-width:0.264583"
       d="M 88.511151,14.261152 95.227694,13.98513"
       id="path6" /><path
       style="fill:#000000;stroke-width:0.264583"
       d="m 116.66543,2.4842007 -0.46004,4.2323419 -1.65614,3.8643124 -3.68029,1.932156 -3.49628,-1.564126 1.74814,-3.4962827 3.12825,-1.656134 2.76022,-0.828067 2.94424,-0.092007 1.56413,1.6561337 0.55204,2.944238 -1.38011,4.416356 -1.56413,3.128253 -2.4842,4.784387 2.66822,-4.508364 2.66821,-5.152417 3.12826,-3.7723043 4.04832,-2.2081783 3.77231,-0.3680299 2.76022,1.3801116 -0.55204,3.8643119 -1.47212,3.772305 -4.32435,2.484201 -4.14034,0.184014 -2.5762,-1.656133"
       id="path7" /><path
       style="fill:#000000;stroke-width:0.264583"
       d="m 137.64312,18.217472 3.03625,-1.196097 1.93215,-1.656134 -0.18401,-1.656133 -3.49629,0.09201 -1.47211,1.656134 -0.73606,1.932156 0.55204,3.312268 2.57621,0.368029 3.31227,-0.184015 3.12825,-1.564126 1.93216,-2.576208 1.38011,-2.944238 0.73606,-2.208178 0.73606,1.840148 1.38011,1.472119 0.92007,0.09201 -1.01208,2.024163 -0.36803,2.208179 0.092,1.472119 1.65613,1.012081 2.20818,-1.012081 1.56413,-1.748142 c 0,0 1.56412,-1.748141 1.84015,-2.300186 0.27602,-0.552044 1.84014,-3.772304 1.84014,-3.772304 l 0.73606,-1.564127 -1.74814,1.564127 1.28811,2.760223 2.39219,2.576208 -0.73606,3.404275 -1.10409,1.288104 -2.20818,-0.276022 -2.11617,-1.564127 2.20818,1.104089 2.94424,0.276023 2.66821,-1.564127 1.74815,-1.472119 2.11617,-3.036245 1.01208,-1.564126 2.66821,-1.104089 3.22026,0.276022 1.38011,3.036245 -0.92007,-1.748141 -3.7723,-1.104089 -2.11618,1.288104 -1.65613,3.496282 1.01208,2.760223 2.66822,0.828067 2.85223,-1.196096 1.47212,-1.932157 0.82806,-2.944237 -0.73606,2.576208 0.46004,1.748141 2.02417,-0.09201 c 0,0 1.74814,-1.288105 1.84014,-2.024164 0.092,-0.736059 1.28811,-3.864312 1.28811,-3.864312 l -0.82807,6.80855 1.10409,-4.508364 1.56413,-1.472119 2.57621,-1.104089 1.84014,0.184014 0.27603,1.472119 -0.36803,3.036246 0.36803,1.564126 1.10409,0.828067 h 1.47212 l 1.01208,-0.644052"
       id="path8" /></g></svg>
