<?xml version="1.0" encoding="UTF-8" standalone="no"?>
<!-- Created with Inkscape (http://www.inkscape.org/) -->

<svg
   width="207.49913mm"
   height="36.782978mm"
   viewBox="0 0 207.49913 36.782978"
   version="1.1"
   id="svg1"
   xml:space="preserve"
   xmlns:inkscape="http://www.inkscape.org/namespaces/inkscape"
   xmlns:sodipodi="http://sodipodi.sourceforge.net/DTD/sodipodi-0.dtd"
   xmlns="http://www.w3.org/2000/svg"
   xmlns:svg="http://www.w3.org/2000/svg"><sodipodi:namedview
     id="namedview1"
     pagecolor="#ffffff"
     bordercolor="#000000"
     borderopacity="0.25"
     inkscape:showpageshadow="2"
     inkscape:pageopacity="0.0"
     inkscape:pagecheckerboard="0"
     inkscape:deskcolor="#d1d1d1"
     inkscape:document-units="mm"><inkscape:page
       x="0"
       y="0"
       width="207.49913"
       height="36.782978"
       id="page2"
       margin="0"
       bleed="0" /></sodipodi:namedview><defs
     id="defs1" /><g
     inkscape:label="Layer 1"
     inkscape:groupmode="layer"
     id="layer1"
     transform="translate(-0.46248131,-1.0543365)"><g
       id="g1"
       transform="translate(0.46261947,1.0543149)"><path
         d="m 10.937,99.773 c 0.078,1.096 0.023,2.191 -0.035,3.286 -0.049,1.03 -0.29,2.025 -0.622,2.997 -0.435,1.062 -0.985,2.072 -1.567,3.06 a 32.369,32.369 0 0 1 -2.289,3.103 c -0.56,0.633 -1.209,1.181 -1.874,1.7 a 5.32,5.32 0 0 1 -2.194,1.141 c -0.643,0.153 -1.268,0.072 -1.902,-0.067 -0.095,-0.032 -0.194,-0.051 -0.283,-0.097 -0.094,-0.047 -0.351,-0.229 -0.26,-0.178 1.03,0.568 2.029,1.19 3.072,1.73 0.115,0.06 -0.19,-0.178 -0.272,-0.278 -0.221,-0.27 -0.258,-0.395 -0.41,-0.71 -0.266,-0.73 -0.535,-1.541 -0.263,-2.311 0.06,-0.167 0.15,-0.321 0.224,-0.482 0.532,-1.007 1.318,-1.83 2.116,-2.627 a 18.98,18.98 0 0 1 3.348,-2.609 c 0.877,-0.516 1.822,-0.862 2.804,-1.107 0.944,-0.212 1.912,-0.26 2.876,-0.284 0.331,0.058 0.847,-0.107 1.16,0.037 0.07,0.033 0.245,0.186 0.177,0.149 -1.056,-0.581 -2.098,-1.189 -3.146,-1.783 0.607,0.477 0.982,1.167 1.29,1.861 0.318,0.833 0.55,1.726 0.51,2.625 -0.01,0.218 -0.045,0.434 -0.067,0.652 -0.247,1.37 -0.926,2.586 -1.588,3.792 -0.573,1.102 -1.26,2.14 -1.85,3.234 -0.452,0.75 -0.867,1.522 -1.283,2.294 -0.361,0.636 -0.567,1.338 -0.89,1.992 -0.518,0.818 -0.875,1.721 -1.353,2.56 -0.42,0.679 -0.81,1.377 -1.306,2.003 -0.265,0.327 -0.441,0.71 -0.654,1.068 -0.037,0.063 -0.049,0.166 -0.12,0.184 -0.048,0.012 -0.006,-0.1 -0.009,-0.15 1.119,0.603 2.19,1.303 3.356,1.81 0.11,0.049 -0.033,-0.24 -0.025,-0.361 0.014,-0.187 0.051,-0.372 0.09,-0.555 0.18,-0.82 0.484,-1.595 0.79,-2.373 0.555,-1.282 1.123,-2.566 1.823,-3.777 0.167,-0.289 0.75,-1.216 0.94,-1.518 0.573,-0.85 1.035,-1.771 1.601,-2.626 0.398,-0.599 0.604,-0.84 1.047,-1.407 0.929,-1.184 1.977,-2.263 2.913,-3.44 0.959,-1.295 1.844,-2.64 2.8,-3.937 0.557,-0.76 1.122,-1.519 1.829,-2.148 0.33,-0.294 0.616,-0.488 0.972,-0.746 0.992,-0.762 2.1,-1.359 3.236,-1.873 0.668,-0.257 1.292,-0.643 1.995,-0.8 0.772,-0.16 1.247,0.013 1.919,0.384 1.236,0.667 1.526,0.828 -2.603,-1.503 -0.123,-0.07 0.242,0.144 0.357,0.226 0.376,0.27 0.64,0.592 0.914,0.96 0.59,0.87 0.88,1.859 1.004,2.89 -0.012,1.463 -0.67,2.8 -1.284,4.095 -0.63,1.212 -1.339,2.383 -2.174,3.465 -0.642,0.82 -1.406,1.52 -2.2,2.189 -0.79,0.568 -1.643,1.04 -2.499,1.5 -0.722,0.489 -1.529,0.815 -2.323,1.162 -0.703,0.355 -1.446,0.6 -2.198,0.823 -0.577,0.154 -1.176,0.18 -1.77,0.193 a 1.68,1.68 0 0 1 -0.789,-0.15 c -0.062,-0.028 -0.24,-0.132 -0.181,-0.097 1.072,0.61 2.145,1.217 3.217,1.826 -0.175,-0.1 -0.34,-0.214 -0.504,-0.33 l -3.666,-1.468 c 0.156,0.133 0.31,0.268 0.486,0.374 1.69,0.967 2.81,2.254 4.63,2.145 0.613,-0.039 1.229,-0.095 1.815,-0.288 0.75,-0.251 1.492,-0.52 2.202,-0.87 0.803,-0.355 1.603,-0.712 2.34,-1.191 0.868,-0.483 1.727,-0.987 2.527,-1.576 0.816,-0.686 1.576,-1.421 2.22,-2.275 0.843,-1.11 1.546,-2.314 2.167,-3.562 0.642,-1.35 1.351,-2.726 1.447,-4.244 -0.088,-1.078 -0.352,-2.116 -0.905,-3.057 -0.244,-0.39 -0.495,-0.792 -0.848,-1.096 a 2.38,2.38 0 0 0 -0.352,-0.243 c -3.379,-1.986 -2.48,-1.523 -4.083,-2.333 -0.731,-0.303 -1.338,-0.388 -2.11,-0.175 -0.687,0.226 -1.307,0.613 -1.97,0.898 -1.137,0.56 -2.26,1.163 -3.267,1.941 -0.41,0.309 -0.617,0.447 -0.995,0.799 -0.705,0.657 -1.265,1.441 -1.83,2.217 -0.946,1.297 -1.823,2.645 -2.812,3.91 -0.946,1.167 -1.955,2.28 -2.875,3.468 a 29.879,29.879 0 0 0 -2.68,4.067 c -1.024,1.734 -1.975,3.507 -2.773,5.359 -0.331,0.787 -0.655,1.568 -0.897,2.388 a 8.9,8.9 0 0 0 -0.158,0.587 c -0.032,0.147 -0.192,0.353 -0.073,0.446 1.074,0.84 2.3,1.465 3.451,2.197 0.06,-0.057 0.127,-0.107 0.178,-0.172 0.282,-0.364 0.398,-0.885 0.73,-1.225 0.49,-0.653 0.87,-1.377 1.298,-2.07 0.477,-0.848 0.84,-1.754 1.38,-2.567 0.336,-0.646 0.56,-1.335 0.888,-1.985 0.403,-0.778 0.834,-1.54 1.252,-2.31 0.578,-1.1 1.232,-2.156 1.83,-3.244 0.66,-1.256 1.352,-2.515 1.646,-3.919 0.038,-0.229 0.091,-0.456 0.113,-0.688 0.085,-0.93 -0.143,-1.866 -0.418,-2.744 -0.28,-0.74 -0.637,-1.444 -1.168,-2.04 -3.327,-1.959 -2.607,-2.264 -5.01,-2.134 -0.974,0.057 -1.953,0.126 -2.904,0.364 a 10.757,10.757 0 0 0 -2.852,1.219 c -1.209,0.788 -2.293,1.733 -3.375,2.684 -0.865,0.798 -1.635,1.697 -2.205,2.734 -0.206,0.413 -0.35,0.622 -0.429,1.08 -0.116,0.673 0.117,1.35 0.29,1.991 0.141,0.39 0.143,0.457 0.356,0.809 0.914,1.51 2.79,2.274 4.461,2.715 0.673,0.105 1.353,0.117 2.011,-0.084 0.827,-0.284 1.568,-0.726 2.244,-1.28 0.695,-0.53 1.363,-1.1 1.908,-1.788 a 66.418,66.418 0 0 0 2.298,-3.159 c 0.611,-1 1.158,-2.039 1.62,-3.116 0.372,-1.002 0.62,-2.03 0.662,-3.104 0.054,-1.086 0.101,-2.171 0.132,-3.258 z m 23.85,19.595 c 0.878,-0.334 1.752,-0.678 2.655,-0.941 0.337,-0.091 0.69,-0.155 1.012,-0.298 0.295,-0.132 0.57,-0.328 0.85,-0.488 0.722,-0.489 1.175,-1.242 1.461,-2.048 0.179,-0.775 0.046,-1.577 -0.087,-2.35 -0.12,-0.587 -0.256,-1.086 -0.7,-1.507 -0.722,-0.311 -2.747,-2.343 -4.302,-2.049 -0.02,0.004 -0.406,0.116 -0.435,0.125 -0.394,0.186 -0.752,0.431 -1.126,0.653 -0.459,0.225 -0.948,0.386 -1.352,0.705 -0.458,0.273 -0.86,0.609 -1.159,1.05 -0.415,0.535 -0.62,1.181 -0.776,1.83 -0.136,0.597 -0.153,1.21 -0.235,1.813 -0.072,0.815 -0.11,1.636 -0.1,2.454 0.005,0.648 0.124,1.274 0.356,1.876 0.21,0.592 0.577,1.108 1.052,1.514 1.877,1.247 2.54,1.967 4.216,2.152 0.057,0.006 0.5,0.046 0.566,0.04 0.106,-0.008 0.208,-0.043 0.312,-0.064 0.866,-0.26 1.745,-0.458 2.572,-0.828 0.96,-0.476 1.688,-1.255 2.312,-2.107 a 78.504,78.504 0 0 1 1.876,-2.649 32.745,32.745 0 0 0 2.074,-3.237 c 0.624,-1.247 1.04,-2.578 1.45,-3.906 0.306,-0.908 0.547,-1.835 0.822,-2.753 0.208,-0.52 0.345,-1.323 0.692,-1.768 0.022,-0.03 0.066,-0.033 0.099,-0.05 -0.272,1.51 0.061,0.11 -3.326,-1.655 -0.074,-0.038 0.058,0.156 0.076,0.237 0.089,0.412 0.088,0.863 0.124,1.281 0.11,0.837 0.128,1.753 0.535,2.517 0.065,0.122 0.152,0.23 0.228,0.346 1.441,1.527 3.393,2.533 5.448,2.667 1.891,-0.136 1.544,0.312 -2.619,-2.2 -0.021,-0.014 -0.267,0.135 -0.348,0.182 a 4.865,4.865 0 0 0 -1.734,1.564 c -0.545,0.921 -0.73,1.975 -0.867,3.02 -0.076,0.663 -0.168,1.337 -0.013,1.994 0.067,0.207 0.167,0.477 0.371,0.594 3.524,2.02 2.208,1.887 3.76,2.01 a 4.93,4.93 0 0 0 1.943,-0.209 c 0.558,-0.197 1.113,-0.455 1.594,-0.806 0.24,-0.174 0.454,-0.387 0.67,-0.589 0.79,-0.892 1.463,-1.876 2.206,-2.806 0.65,-0.883 1.29,-1.771 1.987,-2.616 0.695,-0.9 1.362,-1.821 2.05,-2.727 1.029,-1.282 1.819,-2.726 2.619,-4.155 0.51,-0.987 0.955,-2.014 1.25,-3.088 0.121,-0.442 0.238,-1.031 0.334,-1.483 0.083,-0.69 0.47,-1.61 0.173,-2.3 -0.041,-0.094 -0.11,-0.174 -0.165,-0.261 -3.361,-2.044 -2.949,-2.504 -5.714,-1.854 -0.134,0.043 -0.273,0.07 -0.401,0.128 -0.992,0.447 -1.832,1.79 -2.442,2.643 -0.672,1.023 -1.299,2.082 -1.752,3.221 -0.257,0.647 -0.39,1.099 -0.603,1.76 -0.261,0.94 -0.62,1.853 -0.845,2.804 -0.093,0.391 -0.146,0.731 -0.215,1.127 -0.216,1.27 -0.468,2.535 -0.681,3.806 a 88.964,88.964 0 0 0 -0.91,5.065 c -0.193,1.544 -0.304,3.095 -0.482,4.64 a 18.006,18.006 0 0 0 -0.136,3.473 c 0.116,0.772 0.55,1.42 1.118,1.937 1.216,0.667 2.4,1.395 3.648,2.001 0.116,0.056 0.257,-0.018 0.384,-0.04 0.715,-0.127 1.33,-0.451 1.944,-0.82 1.29,-0.911 2.014,-2.294 2.625,-3.706 0.38,-1.057 0.825,-2.143 0.88,-3.282 0.009,-0.175 -0.007,-0.351 -0.01,-0.527 -0.141,-1.101 -0.816,-2.007 -1.356,-2.944 a 43.548,43.548 0 0 1 -1.047,-1.957 c -0.83,-1.653 -2.84,-2.22 -4.401,-3.044 1.097,0.635 2.24,1.195 3.29,1.906 0.076,0.05 -0.103,0.165 -0.096,0.256 0.003,0.04 0.078,0.02 0.117,0.017 0.303,-0.018 0.61,-0.081 0.914,-0.107 a 40.103,40.103 0 0 0 3.03,-0.573 c 1.05,-0.279 2.11,-0.522 3.15,-0.835 a 24.295,24.295 0 0 0 3.011,-0.912 c 0.958,-0.398 1.936,-0.734 2.88,-1.165 0.613,-0.296 1.248,-0.572 1.824,-0.938 0.375,-0.238 0.542,-0.392 0.89,-0.675 0.7,-0.717 1.512,-1.376 2.058,-2.229 0.095,-0.148 0.17,-0.308 0.254,-0.462 0.292,-0.672 0.548,-1.475 0.267,-2.198 -0.041,-0.107 -0.109,-0.203 -0.164,-0.304 -1.185,-1.278 -3.196,-2.549 -5.087,-2.529 -0.15,0.002 -0.299,0.027 -0.448,0.041 -0.161,0.04 -0.326,0.067 -0.485,0.118 -0.316,0.1 -0.886,0.352 -1.177,0.476 a 82.27,82.27 0 0 0 -1.89,0.83 c -0.947,0.406 -1.716,1.075 -2.369,1.858 -0.1,0.164 -0.215,0.32 -0.3,0.493 -0.244,0.503 -0.361,0.99 -0.515,1.53 -0.28,0.986 -0.563,1.971 -0.856,2.954 -0.239,0.88 -0.63,1.866 -0.383,2.795 0.026,0.098 0.074,0.19 0.112,0.284 1.748,2.082 3.876,2.333 6.186,2.71 0.797,0.101 1.598,0.25 2.405,0.234 0.45,-0.008 0.632,-0.047 1.079,-0.11 1.186,-0.182 1.8,-0.54 2.688,-1.317 1.146,-1.078 2.055,-2.364 2.996,-3.616 a 50.23,50.23 0 0 0 2.346,-3.114 c 0.541,-0.822 0.994,-1.7 1.464,-2.564 0.409,-0.793 0.86,-1.562 1.357,-2.301 0.306,-0.409 0.692,-0.666 1.153,-0.867 0.42,-0.21 0.854,-0.382 1.315,-0.468 0.54,-0.088 1.072,-0.218 1.623,-0.191 0.248,0.05 0.293,0.045 0.527,0.145 0.083,0.036 0.321,0.168 0.242,0.123 -5.948,-3.402 -3.794,-2.321 -2.774,-1.52 0.406,0.311 0.57,0.764 0.744,1.223 0.153,0.423 0.186,0.872 0.207,1.318 -0.284,1.48 4.034,3.103 3.513,1.748 -0.044,-0.114 -0.119,-0.215 -0.178,-0.322 -0.556,-0.708 -1.227,-1.294 -1.955,-1.817 -0.45,0.352 -3.243,-2.459 -4.83,-2.423 -0.341,0.008 -0.553,0.094 -0.88,0.189 -0.916,0.264 -1.62,0.863 -2.255,1.546 -0.388,0.505 -0.805,0.995 -1.062,1.584 -0.156,0.356 -0.312,0.91 -0.422,1.272 a 34.45,34.45 0 0 0 -0.925,4.15 c -0.018,0.63 -0.316,1.387 -0.028,1.998 0.04,0.085 0.103,0.157 0.155,0.236 2.985,1.802 3.044,2.353 5.704,2.328 0.917,-0.032 1.792,-0.303 2.61,-0.708 0.95,-0.571 1.947,-1.062 2.93,-1.576 0.966,-0.455 1.83,-1.074 2.61,-1.798 0.86,-0.892 1.451,-1.97 1.961,-3.086 0.443,-0.994 0.704,-2.051 0.962,-3.104 0.243,-1.08 0.413,-2.173 0.595,-3.265 0.151,-1.01 0.382,-2.005 0.634,-2.994 0.195,-0.673 0.327,-1.363 0.505,-2.04 0.13,0.033 0.016,-0.322 0.136,-0.335 0.04,-0.005 0.015,0.136 -0.02,0.118 -1.16,-0.592 -2.253,-1.31 -3.424,-1.876 -0.07,-0.034 0.025,0.154 0.025,0.231 -0.001,0.121 -0.02,0.242 -0.03,0.363 a 62.926,62.926 0 0 1 -0.797,4.544 c -0.33,1.367 -0.628,2.742 -0.944,4.112 a 45.25,45.25 0 0 0 -0.692,3.434 c -0.102,0.68 -0.224,1.364 -0.146,2.052 0.09,0.515 0.412,0.895 0.78,1.241 1.361,1.075 2.823,2.231 4.569,2.399 0.493,0.03 0.98,0.034 1.465,-0.055 0.413,-0.122 0.705,-0.355 1.01,-0.641 0.185,-0.248 0.368,-0.505 0.519,-0.774 0.131,-0.317 0.066,-0.143 0.19,-0.527 l -3.434,-1.9 c -0.13,0.333 -0.064,0.185 -0.189,0.447 -0.138,0.232 -0.289,0.463 -0.456,0.674 -0.245,0.233 -0.529,0.402 -0.87,0.447 a 5.393,5.393 0 0 1 -1.393,-0.04 c -0.157,-0.032 -0.256,-0.046 -0.406,-0.105 -0.064,-0.026 -0.245,-0.125 -0.186,-0.09 5.611,3.29 3.977,2.373 2.842,1.636 -0.38,-0.26 -0.713,-0.557 -0.903,-0.988 -0.167,-0.644 -0.02,-1.314 0.034,-1.966 0.157,-1.15 0.374,-2.292 0.655,-3.418 0.324,-1.379 0.561,-2.775 0.882,-4.155 0.312,-1.5 0.624,-3 0.923,-4.502 0.028,-0.132 0.06,-0.262 0.083,-0.394 0.016,-0.09 0.107,-0.219 0.033,-0.27 -2.318,-1.603 -3.175,-3.348 -3.708,-1.535 -0.182,0.683 -0.293,1.382 -0.465,2.067 -0.249,1.002 -0.501,2.007 -0.634,3.032 -0.173,1.082 -0.354,2.162 -0.598,3.231 -0.242,1.033 -0.478,2.073 -0.903,3.05 -0.498,1.094 -1.02,2.095 -1.896,2.944 a 11.103,11.103 0 0 1 -2.548,1.722 c -0.98,0.52 -1.973,1.016 -2.95,1.541 -0.792,0.349 -1.623,0.584 -2.496,0.574 -0.467,-0.015 -0.919,-0.036 -1.374,-0.151 -1.311,-0.333 -3.384,-2.038 2.45,1.6 -0.07,-0.034 -0.15,-0.055 -0.21,-0.103 -0.448,-0.359 -0.156,-1.358 -0.152,-1.826 0.178,-1.39 0.453,-2.768 0.871,-4.105 0.099,-0.295 0.286,-0.89 0.425,-1.188 0.255,-0.552 0.66,-1.013 1.033,-1.485 0.599,-0.627 1.249,-1.17 2.122,-1.358 0.369,-0.06 0.445,-0.102 0.809,-0.053 1.31,0.18 3.914,2.312 -1.921,-1.353 0.73,0.483 1.425,1.005 1.973,1.699 0.07,0.055 0.145,0.103 0.208,0.166 0.03,0.03 0.028,0.086 0.064,0.106 4.339,2.432 3.61,3.207 3.524,1.622 -0.017,-0.476 -0.04,-0.959 -0.161,-1.422 -0.186,-0.609 0.05,0.133 -0.164,-0.446 -0.128,-0.347 -0.227,-0.694 -0.5,-0.964 -1.29,-1.29 -2.992,-2.424 -4.828,-2.54 -0.566,0.042 -1.124,0.14 -1.68,0.254 A 7.13,7.13 0 0 0 81.205,100 c -0.5,0.262 -0.93,0.587 -1.251,1.062 a 50.609,50.609 0 0 0 -1.33,2.346 c -0.476,0.849 -0.921,1.715 -1.442,2.537 a 45.026,45.026 0 0 1 -2.279,3.132 c -0.92,1.234 -1.818,2.504 -2.998,3.51 -0.833,0.653 -1.503,1 -2.571,1.126 -1.142,0.11 -2.273,0.011 -3.401,-0.197 -0.596,-0.101 -1.199,-0.19 -1.781,-0.353 -0.159,-0.044 -0.609,-0.243 -0.47,-0.154 2.666,1.702 4.164,2.107 2.734,1.697 -0.058,-0.061 -0.132,-0.11 -0.174,-0.183 -0.414,-0.7 -0.012,-1.982 0.151,-2.685 0.27,-0.986 0.553,-1.964 0.872,-2.935 0.154,-0.469 0.305,-0.965 0.538,-1.405 0.08,-0.154 0.188,-0.291 0.282,-0.437 0.634,-0.723 1.366,-1.338 2.25,-1.737 1.107,-0.523 2.287,-1.104 3.507,-1.27 0.411,0.008 0.81,0.032 1.206,0.157 0.117,0.037 0.445,0.2 0.341,0.137 -1.761,-1.086 -4.194,-2.448 -2.767,-1.647 0.129,0.143 0.3,0.304 0.365,0.494 0.182,0.547 -0.04,1.14 -0.236,1.644 -0.075,0.14 -0.14,0.286 -0.223,0.42 -0.516,0.831 -1.286,1.488 -1.995,2.144 -0.822,0.628 -1.722,1.12 -2.674,1.527 -0.94,0.423 -1.916,0.755 -2.873,1.14 -0.975,0.363 -1.974,0.647 -2.986,0.891 -1.04,0.284 -2.076,0.583 -3.127,0.821 -1.005,0.217 -2.018,0.409 -3.042,0.505 -0.285,0.03 -1.03,0.049 -1.238,0.275 -0.092,0.1 -0.308,0.275 -0.199,0.355 1.084,0.795 2.316,1.365 3.474,2.047 1.223,0.689 0.299,0.17 -2.97,-1.743 -0.073,-0.043 0.145,0.08 0.215,0.127 0.142,0.096 0.258,0.194 0.363,0.332 0.055,0.072 0.096,0.154 0.144,0.23 0.333,0.682 0.696,1.348 1.082,2 0.516,0.903 1.181,1.755 1.429,2.78 0.016,0.16 0.046,0.32 0.047,0.48 0.012,1.104 -0.412,2.185 -0.754,3.212 -0.589,1.338 -1.291,2.646 -2.558,3.459 -0.457,0.244 -0.91,0.488 -1.427,0.58 -1.462,0.26 -3.362,-1.531 2.344,1.824 -0.636,-0.33 -1.072,-0.98 -1.302,-1.645 -0.132,-1.144 -0.064,-2.288 0.057,-3.43 0.147,-1.55 0.274,-3.1 0.439,-4.648 0.237,-1.693 0.545,-3.375 0.92,-5.043 0.244,-1.261 0.516,-2.517 0.728,-3.785 0.23,-1.331 0.543,-2.639 0.96,-3.925 0.215,-0.679 0.323,-1.063 0.588,-1.725 0.445,-1.11 1.045,-2.156 1.703,-3.153 0.744,-1 1.509,-2.165 2.795,-2.472 0.427,-0.087 0.863,-0.181 1.301,-0.174 1.294,0.022 3.778,2.175 -2.42,-1.691 0.077,0.04 0.165,0.062 0.229,0.119 0.478,0.43 0.073,1.628 0.03,2.14 -0.083,0.429 -0.196,1.037 -0.305,1.458 -0.273,1.053 -0.7,2.06 -1.187,3.03 -0.79,1.416 -1.609,2.819 -2.635,4.08 -0.697,0.897 -1.402,1.789 -2.088,2.694 -0.678,0.861 -1.316,1.753 -1.97,2.633 -0.71,0.93 -1.38,1.896 -2.201,2.733 -0.633,0.56 -1.332,1.024 -2.164,1.234 -0.62,0.129 -1.257,0.174 -1.88,0.025 -1.345,-0.533 0.003,-0.008 3.082,1.807 0.267,0.157 -0.306,-0.121 -0.399,-0.216 -0.034,-0.035 -0.063,-0.075 -0.094,-0.112 -0.03,-0.074 -0.12,-0.298 -0.135,-0.37 -0.106,-0.498 -0.03,-1.015 0,-1.515 0.111,-0.987 0.273,-1.979 0.802,-2.84 a 4.154,4.154 0 0 1 1.667,-1.388 c 0.263,-0.13 0.458,-0.224 0.44,-0.238 -3.61,-2.811 -1.98,-2.18 -3.911,-2.227 -0.35,-0.044 -0.696,-0.09 -1.03,-0.211 -0.119,-0.044 -0.457,-0.218 -0.349,-0.152 7.154,4.38 3.518,2.1 2.662,1.563 -0.211,-0.228 -0.345,-0.335 -0.477,-0.626 -0.287,-0.632 -0.334,-1.364 -0.416,-2.04 -0.018,-0.43 -0.023,-0.861 -0.047,-1.292 -0.006,-0.1 0.063,-0.242 -0.018,-0.303 -3.287,-2.431 -2.318,-3.012 -3.641,-2.076 -0.44,0.586 -0.595,1.348 -0.83,2.028 -0.26,0.924 -0.533,1.845 -0.787,2.77 -0.363,1.313 -0.773,2.624 -1.4,3.837 a 28.059,28.059 0 0 1 -2.07,3.187 c -0.628,0.882 -1.29,1.739 -1.893,2.638 -0.577,0.808 -1.274,1.517 -2.193,1.93 -0.825,0.316 -1.681,0.554 -2.552,0.708 -1.778,0.005 -3.548,-1.536 1.77,1.577 -0.083,-0.04 -0.17,-0.073 -0.248,-0.123 -0.223,-0.142 -0.24,-0.21 -0.411,-0.412 -0.197,-0.233 -0.404,-0.45 -0.485,-0.755 l -0.097,-0.25 c -0.036,-0.078 -0.077,-0.153 -0.108,-0.233 -0.158,-0.408 -0.203,-0.858 -0.238,-1.29 -0.046,-0.793 0.007,-1.591 0.098,-2.38 0.08,-0.596 0.096,-1.196 0.201,-1.788 0.136,-0.602 0.324,-1.199 0.712,-1.69 0.302,-0.387 0.688,-0.677 1.105,-0.934 0.42,-0.267 0.888,-0.44 1.325,-0.674 0.353,-0.195 0.684,-0.443 1.076,-0.556 0.195,-0.04 0.382,-0.071 0.582,-0.04 0.23,0.038 0.452,0.166 0.399,0.135 -1.05,-0.625 -2.111,-1.23 -3.166,-1.846 0.584,0.237 0.69,0.656 0.85,1.229 0.148,0.711 0.293,1.455 0.195,2.18 -0.238,0.762 -0.645,1.372 -1.339,1.792 a 6.234,6.234 0 0 1 -1.788,0.731 c -0.9,0.3 -1.778,0.666 -2.695,0.908 z"
         style="fill:#000000;stroke-width:0.264583"
         transform="translate(1.556,-92.075)"
         id="path1" /><path
         d="m 91.8,100.896 c 1.094,-0.057 2.178,-0.249 3.263,-0.395 a 16.616,16.616 0 0 0 2.438,-0.517 c 0.405,-0.117 0.817,-0.156 1.22,-0.274 0.389,-0.086 0.753,-0.247 1.135,-0.359 0.258,-0.046 0.52,-0.067 0.78,-0.087 l -3.203,-2.28 c -0.283,0.034 -0.568,0.065 -0.844,0.145 -0.374,0.13 -0.749,0.25 -1.134,0.342 -0.398,0.105 -0.81,0.15 -1.197,0.298 -0.77,0.237 -1.56,0.387 -2.358,0.502 -1.09,0.167 -2.186,0.361 -3.293,0.305 z m 16.68,-8.811 c 0.412,1.844 0.643,3.719 0.848,5.595 0.121,1.416 0.243,2.845 0.163,4.268 -0.04,0.688 -0.09,0.868 -0.205,1.523 -0.195,0.757 -0.459,1.506 -0.904,2.154 -0.45,0.593 -1.035,1.053 -1.608,1.52 a 7.858,7.858 0 0 1 -2.17,1.192 c -0.288,0.056 -0.59,0.168 -0.89,0.16 -1.013,-0.027 -4.904,-2.548 2.407,1.522 -0.725,-0.462 -1.249,-1.147 -1.586,-1.928 -0.356,-1.103 -0.264,-2.135 0.005,-3.237 0.34,-1.05 0.787,-2.053 1.339,-3.007 0.472,-0.815 1.114,-1.49 1.87,-2.046 0.661,-0.48 1.368,-0.88 2.148,-1.127 0.634,-0.179 1.296,-0.178 1.949,-0.189 0.632,0.042 1.313,0.084 1.88,0.402 0.103,0.059 0.196,0.136 0.294,0.204 -5.739,-3.22 -3.197,-2.067 -2.184,-1.056 0.31,0.31 0.298,0.326 0.553,0.691 0.693,1.128 1.05,2.398 1.327,3.68 0.209,1.118 0.296,2.255 0.285,3.392 -0.006,1.218 -0.235,2.418 -0.46,3.61 -0.217,1.135 -0.604,2.225 -0.939,3.327 a 62.135,62.135 0 0 0 -0.901,3.103 c -0.246,0.81 -0.412,1.64 -0.596,2.464 -0.149,0.526 -0.174,1.072 -0.225,1.613 -0.184,1.49 -0.72,0.198 3.52,1.994 0.085,0.035 0.072,-0.17 0.106,-0.255 0.158,-0.392 0.184,-0.473 0.341,-0.896 0.526,-1.464 1.059,-2.926 1.558,-4.4 0.441,-1.622 0.917,-3.234 1.403,-4.844 0.487,-1.354 0.9,-2.73 1.328,-4.104 0.43,-1.192 0.962,-2.343 1.467,-3.505 0.495,-1.14 0.998,-2.275 1.634,-3.345 0.35,-0.739 0.887,-1.356 1.319,-2.043 0.301,-0.416 0.61,-0.85 1.072,-1.092 0.54,-0.263 1.14,-0.412 1.723,-0.545 0.445,-0.071 1.245,-0.254 1.679,-0.07 0.084,0.036 0.151,0.102 0.227,0.153 -5.789,-3.22 -3.466,-2.311 -2.582,-1.247 0.245,0.294 0.424,0.624 0.603,0.96 0.297,0.587 0.44,1.22 0.558,1.86 0.217,0.92 0.32,1.856 0.378,2.797 0.09,1.151 0.019,2.303 -0.085,3.45 -0.112,1.033 -0.253,2.058 -0.58,3.047 -0.201,0.749 -0.584,1.41 -1.017,2.045 -0.291,0.325 -0.56,0.7 -0.92,0.956 -0.09,0.065 -0.45,0.247 -0.544,0.297 -0.58,0.248 -1.202,0.36 -1.816,0.49 -0.724,0.108 -1.442,0.248 -2.17,0.33 -0.642,0.062 -1.288,0.066 -1.933,0.07 a 16.335,16.335 0 0 1 -1.937,-0.174 c -1.614,-0.273 -4.482,-2.123 1.313,1.15 -0.368,-0.222 -0.668,-0.525 -0.968,-0.827 l -3.596,-1.497 c 0.293,0.316 0.58,0.642 0.92,0.91 2.051,1.182 3.315,2.284 5.469,2.607 0.655,0.072 1.313,0.151 1.974,0.133 0.653,-0.009 1.308,-0.026 1.957,-0.11 0.73,-0.105 1.454,-0.237 2.182,-0.356 0.648,-0.125 1.295,-0.283 1.887,-0.584 0.219,-0.125 0.395,-0.215 0.594,-0.373 0.369,-0.294 0.663,-0.678 0.955,-1.043 0.458,-0.663 0.853,-1.362 1.059,-2.147 0.344,-1.028 0.459,-2.074 0.582,-3.147 0.106,-1.16 0.221,-2.322 0.138,-3.488 -0.055,-0.945 -0.12,-1.893 -0.326,-2.82 -0.11,-0.674 -0.219,-1.34 -0.51,-1.966 -1.123,-2.309 -1.702,-2.069 -4.671,-3.758 -0.678,-0.152 -1.36,-0.02 -2.03,0.131 -0.623,0.15 -1.262,0.295 -1.817,0.63 -0.48,0.324 -0.844,0.771 -1.154,1.257 -0.432,0.692 -0.943,1.333 -1.276,2.084 a 33.72,33.72 0 0 0 -1.64,3.39 c -0.52,1.172 -1.048,2.34 -1.482,3.546 -0.426,1.377 -0.814,2.766 -1.3,4.124 a 206.96,206.96 0 0 0 -1.388,4.837 74.855,74.855 0 0 1 -1.616,4.344 c -0.187,0.436 -0.184,0.453 -0.386,0.841 -0.037,0.072 -0.185,0.166 -0.118,0.212 3.766,2.543 3.42,3.305 3.42,1.803 0.014,-0.527 0.057,-1.055 0.181,-1.57 0.169,-0.827 0.27,-1.67 0.537,-2.476 0.272,-1.037 0.56,-2.071 0.898,-3.088 0.326,-1.12 0.704,-2.23 0.934,-3.375 0.229,-1.21 0.475,-2.424 0.51,-3.658 a 16.804,16.804 0 0 0 -0.278,-3.484 c -0.255,-1.308 -0.614,-2.589 -1.222,-3.781 -0.21,-0.378 -0.223,-0.445 -0.496,-0.77 -1.129,-1.343 -3.297,-1.94 -4.47,-2.894 -0.725,-0.334 -1.504,-0.45 -2.302,-0.438 -0.682,0.018 -1.372,0.048 -2.019,0.29 -0.792,0.305 -1.515,0.74 -2.199,1.242 -0.772,0.615 -1.449,1.32 -1.93,2.19 -0.553,0.993 -1.033,2.02 -1.387,3.102 -0.108,0.43 -0.184,0.683 -0.245,1.126 -0.105,0.769 -0.028,1.54 0.114,2.3 0.042,0.149 0.072,0.302 0.128,0.446 0.121,0.312 0.238,0.43 0.43,0.699 0.27,0.376 0.543,0.741 0.911,1.03 0.846,0.476 2.83,2.309 4.45,2.14 0.317,-0.032 0.625,-0.143 0.927,-0.24 0.79,-0.338 1.533,-0.78 2.214,-1.306 0.609,-0.487 1.23,-0.971 1.7,-1.601 0.464,-0.712 0.724,-1.52 0.892,-2.35 0.105,-0.686 0.153,-0.882 0.182,-1.6 0.057,-1.445 -0.068,-2.898 -0.2,-4.335 a 170.24,170.24 0 0 0 -0.63,-5.484 z"
         style="fill:#000000;stroke-width:0.264583"
         transform="translate(1.556,-92.075)"
         id="path2" /><path
         d="m 136.515,111.385 c 1.037,-0.119 2.037,-0.437 3.033,-0.733 0.905,-0.264 1.58,-0.83 2.142,-1.566 0.54,-0.842 0.938,-1.799 1.027,-2.8 -0.034,-0.375 -0.145,-0.729 -0.498,-0.927 -3.087,-1.742 -2.599,-1.94 -4.66,-2.14 -1.071,-0.064 -2.15,0.098 -3.196,0.316 -1.06,0.177 -1.67,0.583 -2.418,1.333 -0.797,0.719 -1.376,1.6 -1.907,2.521 -0.323,0.603 -0.71,1.2 -0.828,1.886 -0.073,0.424 -0.034,0.6 -0.004,1.026 0.201,1.362 0.866,1.985 1.853,2.846 1.582,1.156 3.228,2.408 5.134,2.928 0.321,0.087 0.623,0.13 0.95,0.184 0.937,0.188 1.77,-0.007 2.664,-0.278 0.982,-0.304 1.84,-0.799 2.683,-1.372 1.044,-0.736 1.918,-1.676 2.68,-2.693 0.819,-1.077 1.36,-2.307 1.849,-3.557 0.415,-1.21 0.854,-2.413 1.232,-3.635 0.272,-0.762 0.48,-1.537 0.61,-2.335 0.082,-0.55 0.102,-1.106 0.113,-1.662 0.002,-0.39 0.012,-0.781 -0.006,-1.171 -0.16,-1.54 1.119,0.004 -3.616,-1.88 -0.025,-0.01 -0.068,0.655 -0.07,0.67 -0.007,0.607 -0.025,1.212 0.035,1.816 0.07,0.76 0.353,1.248 0.798,1.845 0.306,0.375 0.65,0.722 1.072,0.967 3.672,2.13 2.398,1.58 4.083,2.281 0.772,0.238 1.582,0.43 2.39,0.312 0.522,-0.14 0.724,-0.576 0.91,-1.036 0.787,-1.12 0.086,-0.089 -3.478,-1.81 -0.025,-0.013 0.032,0.05 0.03,0.078 -0.011,0.092 -0.042,0.182 -0.07,0.27 -0.098,0.31 -0.246,0.654 -0.366,0.948 a 54.444,54.444 0 0 0 -1.554,3.402 9.798,9.798 0 0 0 -0.667,2.117 c -0.089,0.465 -0.025,0.908 0.198,1.322 1.298,1.1 2.783,2.206 4.477,2.51 0.669,-0.122 1.196,-0.577 1.709,-0.995 0.894,-0.87 1.476,-2.012 2.106,-3.077 0.982,-1.602 1.658,-3.364 2.325,-5.114 0.607,-1.61 1.244,-3.21 1.7,-4.87 0.271,-0.992 0.476,-1.996 0.606,-3.015 0.168,-2.116 -1.704,-2.022 -3.765,-3.121 -0.414,0.438 -0.477,1.004 -0.526,1.578 -0.057,1.036 -0.038,2.066 0.11,3.093 0.215,1.005 0.609,1.96 1.032,2.893 0.443,0.923 0.992,1.787 1.44,2.707 0.47,0.926 0.74,1.926 0.917,2.944 0.15,1.16 0.18,2.334 0.151,3.502 -0.092,0.814 -0.108,1.69 -0.485,2.437 -0.43,0.42 -1.052,0.572 -1.624,0.688 -0.727,0.105 -1.465,0.134 -2.197,0.086 a 8.243,8.243 0 0 1 -2.42,-0.634 c -1.239,-0.509 -3.33,-1.692 2.148,1.307 0.152,0.083 -0.286,-0.194 -0.426,-0.296 -0.41,-0.3 -0.422,-0.323 -0.797,-0.648 -1.283,-1.294 -2.063,-1.912 -4.232,-2.78 -0.184,-0.075 -0.232,0.357 -0.213,0.555 0.013,0.134 0.196,0.186 0.295,0.279 a 35.841,35.841 0 0 0 6.729,3.847 c 0.75,0.3 1.494,0.51 2.304,0.45 0.795,-0.23 1.52,-0.653 2.216,-1.093 0.972,-0.74 1.844,-1.602 2.695,-2.477 1.12,-1.285 2.007,-2.75 2.876,-4.21 0.767,-1.322 1.313,-2.75 1.808,-4.19 0.395,-1.246 0.666,-2.525 1.001,-3.787 a 11.056,11.056 0 0 1 1.226,-2.963 c 0.537,-0.794 0.939,-0.931 1.847,-1.063 0.32,-0.01 0.66,-0.099 0.98,-0.017 0.086,0.022 0.32,0.15 0.243,0.106 -3.59,-2.037 -4.092,-2.377 -2.842,-1.557 0.659,0.485 1.03,1.226 1.448,1.908 0.446,0.622 0.748,1.32 1.065,2.011 0.023,0.049 0.024,0.118 0.07,0.147 1.136,0.704 2.235,1.489 3.453,2.038 0.384,0.173 0.15,-0.65 0.145,-0.66 -0.096,-0.197 -0.303,-0.349 -0.459,-0.487 -1.338,-0.238 -2.573,-1.927 -4.098,-2.244 -0.785,-0.164 -1.617,-0.137 -2.413,-0.107 -1.463,0.251 -2.517,1.267 -3.617,2.184 a 10.948,10.948 0 0 0 -2.43,3.592 c -0.109,0.262 -0.193,0.534 -0.29,0.802 -0.392,1.537 -0.657,3.204 -0.524,4.796 0.027,0.324 0.095,0.643 0.142,0.964 0.092,0.318 0.155,0.646 0.276,0.954 0.448,1.13 1.335,2.408 2.252,3.214 0.192,0.169 0.407,0.31 0.61,0.464 2.028,1.189 3.924,3.1 6.319,2.083 0.168,-0.072 0.321,-0.176 0.482,-0.264 0.151,-0.123 0.313,-0.234 0.453,-0.37 0.364,-0.347 0.683,-0.775 0.968,-1.184 0.296,-0.424 0.815,-1.242 1.056,-1.688 0.17,-0.313 0.313,-0.64 0.469,-0.959 0.721,-1.726 1.23,-3.536 1.62,-5.363 0.213,-0.945 0.248,-1.898 0.04,-2.842 -0.219,-0.688 -0.547,-1.335 -0.847,-1.99 -0.087,-0.04 -0.257,-0.67 -0.3,-0.691 -3.65,-1.766 -3.63,-2.913 -3.555,-1.361 0.097,0.686 0.437,1.285 0.879,1.806 0.284,0.279 0.569,0.585 0.92,0.784 3.628,2.055 2.293,1.715 3.916,2.096 0.77,0.147 0.985,-0.032 1.499,-0.584 0.642,-0.779 1.155,-1.65 1.614,-2.546 0.506,-1.037 0.847,-2.147 1.126,-3.263 l 0.1,-0.457 c 0.025,-0.115 0.047,-0.232 0.076,-0.346 a 1.1,1.1 0 0 1 0.057,-0.174 c 0.003,-0.008 0.018,0.027 0.01,0.023 -3.558,-1.792 -3.694,-3.067 -3.454,-1.542 0.002,1.717 -0.105,3.435 -0.258,5.145 -0.148,1.776 -0.424,3.538 -0.59,5.311 -0.12,1.343 -0.16,2.691 -0.229,4.037 -0.008,0.087 -0.003,0.175 -0.024,0.259 -0.36,1.388 -5.803,-0.309 3.572,1.575 0.209,0.042 0.058,-0.422 0.086,-0.633 0.203,-1.583 0.015,-0.246 0.275,-2.008 0.34,-2.098 0.77,-4.18 1.23,-6.255 0.332,-1.08 0.42,-2.31 1.072,-3.264 0.127,-0.112 0.33,-0.352 0.536,-0.303 0.055,0.014 0.092,0.067 0.14,0.096 0.29,0.175 0.063,0 0.325,0.223 -6.196,-3.496 -3.563,-2.622 -2.892,-1.437 0.2,0.352 0.34,0.726 0.48,1.104 0.312,0.864 0.602,1.737 0.89,2.61 0.609,1.754 1.218,3.508 1.885,5.241 0.643,1.67 1.407,3.281 2.342,4.806 0.228,0.298 0.436,0.684 0.773,0.881 2.335,1.366 2.607,1.965 4.43,2.211 0.978,0.043 1.909,-0.264 2.838,-0.526 0.153,-0.046 0.313,-0.075 0.46,-0.137 1.027,-0.434 1.972,-1.16 2.763,-1.933 0.27,-0.263 0.517,-0.549 0.776,-0.823 1.423,-1.645 2.543,-3.522 3.48,-5.479 0.324,-0.793 0.184,-0.406 0.428,-1.157 l -3.391,-1.853 c -0.196,0.737 -0.081,0.356 -0.352,1.141 -0.82,1.966 -1.9,3.828 -3.346,5.406 -0.26,0.26 -0.508,0.532 -0.78,0.78 -0.929,0.85 -2.015,1.545 -3.242,1.86 -0.897,0.257 -1.814,0.522 -2.755,0.367 -1.426,-0.333 -2.694,-1.398 2.333,1.58 0.099,0.059 -0.205,-0.103 -0.297,-0.17 -0.258,-0.185 -0.373,-0.351 -0.584,-0.595 -0.17,-0.252 -0.572,-0.847 -0.716,-1.082 -0.719,-1.172 -1.266,-2.439 -1.784,-3.709 -0.646,-1.706 -1.205,-3.44 -1.785,-5.17 -0.257,-0.87 -0.506,-1.75 -0.83,-2.596 -0.134,-0.39 -0.277,-0.773 -0.44,-1.152 a 15.924,15.924 0 0 0 -0.246,-0.538 c -1.147,-0.743 -2.341,-1.408 -3.512,-2.111 -0.639,-0.212 -0.893,0.004 -1.308,0.495 -0.617,1.043 -0.707,2.298 -1.02,3.45 -0.435,2.088 -0.802,4.192 -1.197,6.29 -0.03,0.16 -0.322,1.692 -0.377,1.945 -0.041,0.19 -0.299,0.452 -0.142,0.568 1.075,0.795 2.38,1.226 3.516,1.93 0.06,0.037 -0.076,0.207 -0.132,0.164 -0.073,-0.057 -0.01,-0.186 -0.016,-0.279 a 43.154,43.154 0 0 1 0.133,-4.054 c 0.17,-1.78 0.405,-3.554 0.543,-5.338 0.15,-1.7 0.24,-3.405 0.455,-5.098 0.11,-1.599 0.104,-0.354 -3.507,-2.24 -0.035,-0.02 -0.036,0.072 -0.045,0.11 -0.044,0.185 -0.051,0.376 -0.082,0.562 -0.024,0.15 -0.053,0.3 -0.08,0.45 -0.244,1.094 -0.573,2.178 -1.07,3.184 -0.454,0.852 -0.941,1.696 -1.59,2.416 -0.505,0.432 -0.65,0.403 -1.282,0.228 -1.385,-0.522 -0.198,-0.09 2.865,1.72 0.08,0.046 -0.17,-0.074 -0.25,-0.121 -0.262,-0.156 -0.5,-0.364 -0.726,-0.566 -0.106,-0.1 -0.388,-0.36 -0.473,-0.482 -0.067,-0.095 -0.106,-0.207 -0.163,-0.308 -0.142,-0.252 -0.294,-0.482 -0.313,-0.782 -0.419,-1.436 -0.036,-0.262 -3.579,-2.064 -0.043,-0.022 0.036,0.09 0.052,0.137 0.07,0.212 0.133,0.426 0.256,0.618 0.348,0.616 0.62,1.279 0.904,1.927 0.287,0.886 0.257,1.805 0.103,2.718 -0.3,1.821 -0.757,3.62 -1.491,5.318 -0.722,1.46 -1.57,2.969 -2.93,3.925 -0.48,0.227 -0.943,0.398 -1.486,0.391 -1.366,-0.017 -3.552,-1.659 1.47,1.313 -0.217,-0.14 -0.446,-0.265 -0.651,-0.422 -0.946,-0.722 -1.881,-1.96 -2.356,-3.046 -0.127,-0.29 -0.197,-0.604 -0.295,-0.905 -0.055,-0.307 -0.132,-0.611 -0.166,-0.921 -0.171,-1.557 0.1,-3.154 0.485,-4.656 0.587,-1.628 1.326,-3.03 2.612,-4.223 1.047,-0.866 2.13,-1.787 3.534,-1.934 0.61,-0.013 1.22,-0.013 1.823,0.103 1.365,0.262 3.566,1.914 -2.08,-1.459 0.047,0.03 0.588,0.399 0.616,0.383 0.09,-0.05 0.105,-0.285 0.198,-0.24 2.683,1.336 4.26,2.931 3.208,1.88 -0.405,-0.662 -0.623,-1.427 -1.092,-2.057 -0.452,-0.68 -0.779,-1.457 -1.374,-2.03 -1.889,-1.59 -3.107,-2.606 -5.219,-2.215 -0.993,0.214 -1.45,0.483 -2.008,1.357 -0.553,0.97 -0.995,1.982 -1.242,3.075 -0.325,1.256 -0.622,2.52 -0.98,3.768 -0.472,1.421 -0.988,2.835 -1.735,4.14 -0.849,1.439 -1.712,2.887 -2.862,4.112 -0.844,0.85 -1.709,1.685 -2.7,2.366 -0.653,0.402 -1.355,0.823 -2.133,0.898 -0.744,-0.016 -1.453,-0.25 -2.134,-0.538 -0.18,-0.08 -0.362,-0.158 -0.54,-0.242 -0.205,-0.097 -0.802,-0.418 -0.61,-0.299 0.867,0.536 1.758,1.03 2.634,1.55 0.205,0.122 -0.416,-0.232 -0.619,-0.355 a 12.217,12.217 0 0 1 -0.525,-0.34 c -0.144,-0.098 -0.282,-0.203 -0.423,-0.305 -0.407,-0.29 -0.192,-0.268 -0.619,0.198 -1.165,-0.493 -2.181,-1.28 -3.272,-1.92 0.075,0.045 0.156,0.08 0.225,0.134 0.123,0.098 0.513,0.511 0.601,0.603 1.62,1.557 3.645,2.677 5.724,3.507 0.81,0.29 1.64,0.494 2.504,0.536 0.76,0.017 1.527,0 2.272,-0.163 0.673,-0.179 1.39,-0.403 1.83,-0.977 0.365,-0.82 0.394,-1.742 0.478,-2.623 0.038,-1.183 0.039,-2.373 -0.09,-3.55 -0.148,-1.05 -0.416,-2.09 -0.874,-3.048 -0.093,-0.2 -0.366,-0.793 -0.472,-0.984 -0.314,-0.572 -0.671,-1.122 -0.955,-1.711 -0.423,-0.911 -0.84,-1.826 -1.091,-2.803 a 11.08,11.08 0 0 1 -0.113,-2.988 c 0.01,-0.095 0.089,-1.141 0.285,-1.071 -1.119,-0.636 -2.244,-1.26 -3.356,-1.907 -0.042,-0.025 0.102,0.007 0.143,0.033 0.27,0.177 0.275,0.594 0.284,0.87 -0.084,1.014 -0.273,2.01 -0.503,3.001 -0.43,1.66 -1.016,3.27 -1.605,4.877 -0.667,1.725 -1.38,3.443 -2.364,5.016 -0.621,1.02 -1.197,2.118 -2.106,2.914 -0.435,0.33 -0.955,0.808 -1.543,0.67 -1.244,-0.434 -3,-1.703 2.84,1.705 0.12,0.07 -0.244,-0.133 -0.363,-0.204 -0.053,-0.032 -0.11,-0.06 -0.164,-0.09 -0.05,-0.023 -0.107,-0.034 -0.15,-0.07 -0.225,-0.186 -0.255,-0.67 -0.222,-0.928 a 7.892,7.892 0 0 1 0.574,-2.07 c 0.442,-1.162 0.924,-2.309 1.526,-3.398 1.18,-2.418 1.03,-1.448 -2.898,-3.398 -0.033,-0.016 -0.027,0.067 -0.04,0.101 -0.11,0.353 -0.235,0.638 -0.645,0.675 -0.77,0.028 -1.535,-0.161 -2.244,-0.457 -1.417,-0.703 -0.41,-0.213 2.622,1.554 0.099,0.058 -0.202,-0.112 -0.302,-0.169 -0.364,-0.207 -0.258,-0.125 -0.566,-0.415 -0.09,-0.084 -0.177,-0.172 -0.266,-0.259 -0.425,-0.501 -0.784,-0.961 -0.867,-1.634 a 9.954,9.954 0 0 1 -0.054,-1.758 c 0.008,-0.149 0.046,-0.55 0.043,-0.552 -1.155,-0.66 -2.349,-1.249 -3.523,-1.873 0.096,-0.008 0.053,-0.024 0.111,0.082 0.096,0.363 0.012,0.755 0.046,1.127 0.003,0.543 0,1.088 -0.062,1.628 -0.101,0.79 -0.306,1.549 -0.552,2.305 -0.33,1.227 -0.749,2.43 -1.172,3.627 -0.48,1.214 -1.015,2.412 -1.805,3.463 -0.743,0.982 -1.607,1.875 -2.633,2.566 -0.823,0.527 -1.684,0.987 -2.624,1.269 -0.87,0.226 -1.683,0.316 -2.573,0.123 -0.374,-0.078 -0.536,-0.1 -0.903,-0.23 -0.152,-0.055 -0.584,-0.273 -0.447,-0.188 5.291,3.274 3.088,1.838 1.943,1.097 -0.57,-0.473 -1.257,-0.949 -1.628,-1.607 -0.173,-0.305 -0.236,-0.625 -0.326,-0.958 -0.041,-0.331 -0.092,-0.572 -0.052,-0.906 0.08,-0.654 0.458,-1.23 0.756,-1.8 0.523,-0.88 1.09,-1.735 1.855,-2.426 0.744,-0.671 1.313,-0.967 2.301,-1.15 1.03,-0.2 2.09,-0.329 3.138,-0.202 0.146,0.022 0.294,0.038 0.439,0.068 0.143,0.029 0.546,0.187 0.424,0.108 -0.966,-0.63 -1.995,-1.157 -2.971,-1.77 -0.098,-0.061 0.226,0.059 0.329,0.113 0.25,0.131 0.231,0.197 0.34,0.44 0.007,0.113 0.032,0.227 0.021,0.34 -0.014,0.148 -0.058,0.292 -0.095,0.436 -0.165,0.648 -0.416,1.273 -0.816,1.812 -0.53,0.653 -1.176,1.148 -1.999,1.377 -0.981,0.308 -1.987,0.614 -3.026,0.596 z"
         style="fill:#000000;stroke-width:0.264583"
         transform="translate(1.556,-92.075)"
         id="path3" /></g></g></svg>
